<svg width="17" height="17" viewBox="0 0 17 17" fill="none" xmlns="http://www.w3.org/2000/svg">
<path d="M2.34875 1.55983L1.63317 2.7232C1.63317 2.7232 -1.08363 6.44354 4.73808 12.2846C4.73808 12.2967 4.75021 12.3088 4.76234 12.321C4.77446 12.3331 4.77446 12.3452 4.78659 12.3452C10.6447 18.1499 14.356 15.4475 14.356 15.4475L15.5325 14.7325C16.1996 14.2235 16.2723 13.242 15.678 12.6482L14.2833 11.2545C13.7981 10.7698 13.0219 10.7092 12.4761 11.1212L10.9964 12.0786C10.9964 12.0786 10.0019 12.6724 7.20018 9.88516C4.41061 7.08582 5.00491 6.09211 5.00491 6.09211L5.95093 4.60155C6.36331 4.05622 6.30266 3.28064 5.81752 2.79591L4.43486 1.40229C3.84056 0.808491 2.85815 0.881202 2.34875 1.55983Z" stroke="#10EDD2" stroke-miterlimit="10"/>
<path d="M9.43185 4.61366C10.3051 3.74114 11.712 3.74114 12.5853 4.61366C13.4585 5.48619 13.4585 6.89192 12.5853 7.76444" stroke="#10EDD2" stroke-miterlimit="10"/>
<path d="M8.42517 3.61996C9.84421 2.20211 12.1608 2.20211 13.5798 3.61996C14.9989 5.03781 14.9989 7.35242 13.5798 8.77027" stroke="#10EDD2" stroke-miterlimit="10"/>
<path d="M7.40637 2.60201C9.39546 0.614596 12.6095 0.614596 14.5986 2.60201C16.5877 4.58943 16.5877 7.8008 14.5986 9.78822" stroke="#10EDD2" stroke-miterlimit="10"/>
</svg>
