<svg width="26" height="22" viewBox="0 0 26 22" fill="none" xmlns="http://www.w3.org/2000/svg">
<path d="M24.7128 21.1437C24.7128 21.4162 24.4888 21.64 24.2162 21.64H0.856883C0.584244 21.64 0.360291 21.4162 0.360291 21.1437V5.1759C0.360291 4.90344 0.584244 4.67964 0.856883 4.67964H24.2064C24.4791 4.67964 24.703 4.90344 24.703 5.1759V21.1437H24.7128Z" stroke="#A053ED" stroke-width="0.75" stroke-miterlimit="10" stroke-linecap="round" stroke-linejoin="round"/>
<path d="M0.370056 11.1894H24.7128" stroke="#A053ED" stroke-width="0.75" stroke-miterlimit="10" stroke-linecap="round" stroke-linejoin="round"/>
<path d="M7.29309 4.67964V1.20584C7.29309 0.933382 7.51704 0.709579 7.78968 0.709579H17.2834C17.556 0.709579 17.7799 0.933382 17.7799 1.20584V4.67964" stroke="#A053ED" stroke-width="0.75" stroke-miterlimit="10" stroke-linecap="round" stroke-linejoin="round"/>
<path d="M9.48392 9.48653H8.41284V13.8263H9.48392V9.48653Z" fill="#A053ED"/>
<path d="M16.6602 9.48653H15.5891V13.8263H16.6602V9.48653Z" fill="#A053ED"/>
</svg>
