<svg width="30" height="18" viewBox="0 0 30 18" fill="none" xmlns="http://www.w3.org/2000/svg">
<path d="M9.98 0.919992C6.53 1.44999 4.22 2.70999 2.16 2.11999L1.5 3.10999V15.85C3.66 16.48 6.06 15.64 9.72 15.39C13.55 15.13 14.87 16.48 14.87 16.48V14.83V3.73999V2.70999C14.87 2.70999 13.42 0.389992 9.98 0.919992Z" stroke="#A053ED" stroke-width="0.75" stroke-miterlimit="10" stroke-linecap="round" stroke-linejoin="round"/>
<path d="M2.16003 14.22C4.21003 14.82 6.53003 13.56 9.97003 13.03C13.41 12.5 14.87 14.82 14.87 14.82V2.70999C14.87 2.70999 13.41 0.389992 9.97003 0.919992C6.53003 1.44999 4.22003 2.70999 2.16003 2.11999V14.22Z" stroke="#A053ED" stroke-width="0.75" stroke-miterlimit="10" stroke-linecap="round" stroke-linejoin="round"/>
<path d="M19.77 0.919992C23.21 1.44999 25.53 2.70999 27.58 2.10999L28.24 3.09999V15.84C26.08 16.47 23.68 15.63 20.02 15.38C16.19 15.12 14.87 16.47 14.87 16.47V14.82V3.73999V2.70999C14.87 2.70999 16.33 0.389992 19.77 0.919992Z" stroke="#A053ED" stroke-width="0.75" stroke-miterlimit="10" stroke-linecap="round" stroke-linejoin="round"/>
<path d="M27.59 14.22C25.54 14.82 23.22 13.56 19.78 13.03C16.34 12.5 14.88 14.82 14.88 14.82V2.70999C14.88 2.70999 16.34 0.389992 19.78 0.919992C23.22 1.44999 25.54 2.70999 27.59 2.10999V14.22Z" stroke="#A053ED" stroke-width="0.75" stroke-miterlimit="10" stroke-linecap="round" stroke-linejoin="round"/>
<path d="M28.11 2.88998L29.38 2.90998V16.95L14.88 17.26L0.380005 16.95V2.90998L1.64 2.88998" stroke="#A053ED" stroke-width="0.75" stroke-miterlimit="10" stroke-linecap="round" stroke-linejoin="round"/>
</svg>
